<?xml version="1.0" encoding="utf-8"?>
<!-- Generator: Adobe Illustrator 18.0.0, SVG Export Plug-In . SVG Version: 6.00 Build 0)  -->
<svg version="1.2" baseProfile="tiny" id="Layer_1" xmlns="http://www.w3.org/2000/svg" xmlns:xlink="http://www.w3.org/1999/xlink"
	 x="0px" y="0px" fill=Colors.White viewBox="0 0 641.7 67.6" xml:space="preserve">
<g>
	<path d="M21.4,34.7v11.6c0,4.1,3.7,6,8.4,6v10.2C19,62.4,11.2,56,11.2,46.5V34.7H5.7v-9.4h5.5v-4.8l10.2-7.4v12.2h8.6v9.4H21.4z"/>
	<path d="M71.4,61.6H61.2V43.4c0-5.8-3.4-8.8-7.6-8.8c-4.5,0-8.7,3.7-8.7,8.8v18.1H34.7V7.9H45v19.9c1.9-2.4,6.3-3.4,9.6-3.4
		c9.9,0,16.8,8.5,16.8,19V61.6z"/>
	<path d="M112.3,54.8c-3.1,4.6-9.5,7.6-16,7.6c-10.9,0-19.7-8.6-19.7-18.9c0-10.5,8.4-19,18.9-19c9,0,15.9,6,18.1,12.8L93.3,51.8
		c0.9,0.4,1.9,0.4,3,0.4c3.1,0,6.2-1.1,7.8-3.7L112.3,54.8z M87.2,45.8l13.2-9.4c-1.4-1.1-3.1-1.7-5-1.7c-4.7,0-8.5,3.7-8.5,8.8
		C86.9,44.3,87,45.1,87.2,45.8z"/>
	<path d="M117.3,35.5c0-6.3,6.6-11,12-11c4.7,0,8.3,1.9,10.9,5.7l-7.3,5.3c-0.9-0.9-1.9-1.5-3.3-1.5s-2.2,0.8-2.2,1.9
		c0,1.2,0.9,1.9,3.9,2.3c6.7,0.9,11.8,4.3,11.8,11.8c0,7.4-6.1,12.5-14,12.5c-5.4,0-9.4-1.9-12.5-5.5l8.6-6.3c1.1,1.2,2.4,1.6,4,1.6
		c1.9,0,2.7-1.1,2.7-2.4c0-1.4-0.9-2.4-3.2-2.8C122,46,117.3,41.6,117.3,35.5z"/>
	<path d="M184.7,43.4c0,10.4-8.7,18.9-19.2,18.9s-18.9-8.6-18.9-18.9c0-10.5,8.4-19,18.9-19S184.7,32.9,184.7,43.4z M174.3,43.4
		c0-5.1-3.7-8.8-8.7-8.8c-4.7,0-8.5,3.7-8.5,8.8c0,5.2,3.8,8.8,8.5,8.8C170.5,52.2,174.3,48.6,174.3,43.4z"/>
	<path d="M226.9,44.9c-0.7,9.7-9.1,17.5-19.2,17.5c-10.4,0-18.9-8.6-18.9-18.9c0-10.5,8.4-19,18.9-19c6,0,11.4,2.8,14.9,7.1
		l-8.1,6.3c-1.9-2.4-4.2-3.2-6.8-3.2c-4.7,0-8.5,3.7-8.5,8.8c0,5.2,3.8,8.8,8.5,8.8c4.5,0,8-3,8.6-7.3H226.9z"/>
	<path d="M231.7,13c0-2.9,2.7-5.6,5.9-5.6c3.5,0,6.1,2.7,6.1,5.6c0,3.2-2.7,5.8-6.1,5.8C234.4,18.8,231.7,16.2,231.7,13z
		 M242.7,61.6h-10.2V25.2h10.2V61.6z"/>
	<path d="M285.4,25.2v36.4h-10.2V59c-1.6,2.1-5.5,3.4-8.9,3.4c-9.9,0-17.9-8.6-17.9-18.9c0-10.5,8.1-19,17.9-19
		c3.2,0,7.3,1.6,8.9,3.3v-2.5H285.4z M275.6,43.4c0-5.1-3.5-8.8-8.3-8.8c-4.7,0-8.5,3.7-8.5,8.8c0,5.2,3.8,8.8,8.5,8.8
		C272.1,52.2,275.6,48.6,275.6,43.4z"/>
	<path d="M302.8,7.9v53.6h-10.2V7.9H302.8z"/>
	<path d="M346.5,44.9c-0.7,9.7-9.1,17.5-19.2,17.5c-10.4,0-18.9-8.6-18.9-18.9c0-10.5,8.4-19,18.9-19c6,0,11.4,2.8,14.9,7.1
		l-8.1,6.3c-1.9-2.4-4.2-3.2-6.8-3.2c-4.7,0-8.5,3.7-8.5,8.8c0,5.2,3.8,8.8,8.5,8.8c4.5,0,8-3,8.6-7.3H346.5z"/>
	<path d="M388.6,43.4c0,10.4-8.7,18.9-19.2,18.9c-10.4,0-18.9-8.6-18.9-18.9c0-10.5,8.4-19,18.9-19
		C379.9,24.4,388.6,32.9,388.6,43.4z M378.2,43.4c0-5.1-3.7-8.8-8.7-8.8c-4.7,0-8.5,3.7-8.5,8.8c0,5.2,3.8,8.8,8.5,8.8
		C374.4,52.2,378.2,48.6,378.2,43.4z"/>
	<path d="M429.8,61.6h-10.2V43.4c0-6.3-3.2-8.8-7.8-8.8c-3.8,0-7.2,4-7.2,8.8v18.1h-10.2V25.2h10.2v2.5c1.7-2,5.8-3.3,8.9-3.3
		c5.3,0,10.2,2.4,12.3,5.8c3.5-4.6,9.2-5.8,13-5.8c11.2,0,16.6,8.5,16.6,19v18.1h-10.2V43.4c0-5.5-3.4-8.8-7.5-8.8
		c-4.5,0-7.8,4-7.8,8.8V61.6z"/>
	<path d="M497.5,61.6h-10.2V43.4c0-6.3-3.2-8.8-7.8-8.8c-3.8,0-7.2,4-7.2,8.8v18.1H462V25.2h10.2v2.5c1.7-2,5.8-3.3,8.9-3.3
		c5.3,0,10.2,2.4,12.3,5.8c3.5-4.6,9.2-5.8,13-5.8c11.2,0,16.6,8.5,16.6,19v18.1h-10.2V43.4c0-5.5-3.4-8.8-7.5-8.8
		c-4.5,0-7.8,4-7.8,8.8V61.6z"/>
	<path d="M563.9,54.8c-3.1,4.6-9.5,7.6-16,7.6c-10.9,0-19.7-8.6-19.7-18.9c0-10.5,8.4-19,18.9-19c9,0,15.9,6,18.1,12.8l-20.3,14.5
		c0.9,0.4,1.9,0.4,3,0.4c3.1,0,6.2-1.1,7.8-3.7L563.9,54.8z M538.8,45.8l13.2-9.4c-1.4-1.1-3.1-1.7-5-1.7c-4.7,0-8.5,3.7-8.5,8.8
		C538.5,44.3,538.6,45.1,538.8,45.8z"/>
	<path d="M607.5,61.6h-10.2V43.4c0-5.8-3.4-8.8-7.6-8.8c-4.5,0-8.7,3-8.7,8.8v18.1h-10.2V25.2h10.2v2.5c2-2.3,6.3-3.3,9.6-3.3
		c9.9,0,16.8,8.5,16.8,19V61.6z"/>
	<path d="M626.9,34.7v11.6c0,4.1,3.7,6,8.4,6v10.2c-10.9,0-18.6-6.4-18.6-15.8V34.7h-5.5v-9.4h5.5v-4.8l10.2-7.4v12.2h8.6v9.4H626.9
		z"/>
</g>
</svg>
