<?xml version="1.0" encoding="utf-8"?>
<!-- Generator: Adobe Illustrator 18.0.0, SVG Export Plug-In . SVG Version: 6.00 Build 0)  -->
<!DOCTYPE svg PUBLIC "-//W3C//DTD SVG 1.1//EN" "http://www.w3.org/Graphics/SVG/1.1/DTD/svg11.dtd">
<svg  version="1.1" xmlns="http://www.w3.org/2000/svg" xmlns:xlink="http://www.w3.org/1999/xlink" x="0px" y="0px"
	 viewBox="0 0 900 900" style="enable-background:new 0 0 900 900;" xml:space="preserve">
<g id="Layer_3">
</g>
<g id="Layer_2">
	<g>
		<path style="fill:#fff;" d="M450,885.1L450,885.1C209.7,885.1,14.9,690.3,14.9,450v0C14.9,209.7,209.7,14.9,450,14.9h0
			c240.3,0,435.1,194.8,435.1,435.1v0C885.1,690.3,690.3,885.1,450,885.1z"/>
		<g>
			<path style="fill:trasnparent;" d="M584,448.2c0-33.6-21.7-63.4-53.6-74.1L418,336.2c-0.1,0-0.2-0.1-0.2-0.2l0.5-105
				c0-0.1,0.1-0.1,0.2-0.1h70.8c0.1,0,0.2,0,0.2,0.1l-0.5,79.5c0,0.1,0.1,0.2,0.2,0.2l91.3,0.6c0.1,0,0.2-0.1,0.2-0.2l0.6-93.4
				c0.1-20.7-7.7-40.2-22-55c-15-15.5-36-23.8-57.6-23.8h-96.9c-42.9,0-78,34.9-78.2,77.8l-0.7,128.6c-0.2,33.8,21.2,63.8,53.2,74.6
				l113,37.9c0.1,0,0.9,0.1,0.9,0.2v105.3c0,0.1-1.5,0.6-1.7,0.6h-70.6c-0.1,0,1.2-0.5,1.2-0.6V481c0-0.1-1.5,0-1.7,0H329
				c-0.1,0,1-0.1,1,0v95.9c0,26.6,13.1,50.2,33.3,64.3L584,565.5V448.2z"/>
			<polygon style="fill:trasnparent;" points="372.6,765.1 395.3,795.6 549.2,667.5 593.8,630.4 659.8,575.5 600.2,614.8 514.1,671.7
							"/>
			<polygon style="fill:trasnparent;" points="696,540 695.7,540 601.6,573.3 381.5,651.3 317.1,674.1 301.7,792.4 365.7,751.3
				366.7,752.5 366,751.3 502,664.2 600.1,601.4 			"/>
		</g>
	</g>
</g>
</svg>
